<?xml version="1.0" encoding="utf-8"?><svg xmlns="http://www.w3.org/2000/svg" xmlns:xlink="http://www.w3.org/1999/xlink"><symbol viewBox="0 0 32 32" id="svg--codepen" xmlns="http://www.w3.org/2000/svg"><path d="M16 2.844l-.563.375-12 8.031-.437.281v8.938l.438.281 12 8.031.562.375.563-.375 12-8.031.437-.281V11.53l-.438-.281-12-8.031zm-1 3.062v5.438l-5.156 3.469-4.031-2.72zm2 0l9.188 6.188-4.032 2.719L17 11.342zm-1 7.188L20.344 16 16 18.906 11.656 16zm-11 .844L8.063 16 5 18.063zm22 0v4.124L23.937 16zm-17.125 3.25L15 20.655v5.438l-9.188-6.188zm12.25 0l4.063 2.718L17 26.094v-5.438z"/></symbol><symbol viewBox="0 0 24 24" id="svg--codewars" xmlns="http://www.w3.org/2000/svg"><path d="M.76 12.2l-.08-.04c-.18-.1-.32-.25-.42-.44-.14-.26-.2-.5-.2-.75l.02-.13c0-.2.05-.38.14-.55l.08-.15c.04-.08.1-.15.15-.22.06-.07.07-.16.05-.24l-.05-.16c-.06-.2-.1-.4-.1-.6L.32 8.8c0-.22.06-.44.2-.6l.1-.13c.07-.1.18-.16.3-.2.1-.03.17-.13.18-.25l.02-.34c0-.27.13-.52.33-.7l.24-.18c.05-.05.1-.1.14-.18.05-.06.06-.14.05-.2-.02-.1 0-.13.05-.14.16.06.26.04.33-.04l.13-.17.36-.4a.4.4 0 00.08-.42l-.12-.26c-.02-.06 0-.13.05-.15.13 0 .22.05.26.13l.04.07c.06.12.2.18.3.13.22-.08.4-.1.57-.1h.32c.22 0 .4-.15.44-.38.04-.28.14-.5.28-.65.15-.17.32-.3.52-.4.26-.14.42-.34.47-.6.07-.32.24-.55.47-.7l.76-.43.22-.13c.13-.08.25-.18.35-.3l.2-.24c.1-.1.2-.17.32-.2.1-.03.24-.05.36-.04l.4.03c.2 0 .36.05.52.12l.1.05c.1.04.2.02.25-.05L10 .7l.43-.45c.1-.1.22-.14.35-.12.13.02.26.07.38.13.18.1.33.14.5.14h.1c.22 0 .44.03.66.08l.15.04c.15.04.3-.02.4-.14.03-.05.1-.06.14-.02.03.02.04.04.05.07.02.2.14.35.3.4l.16.05a.8.8 0 01.42.3c.1.15.22.3.36.4l.1.1c.1.1.24.14.38.13h.59c.24 0 .47.04.7.14.22.1.45.12.66.04.22-.07.45-.1.68-.07l.43.07c.2.02.4.12.52.27l.05.05c.1.1.2.23.3.37.06.13.2.2.34.2h.62c.15 0 .3.03.42.1.13.1.24.2.34.3l.1.13c.12.14.18.33.17.53 0 .16.12.3.28.3l.2.02c.14 0 .26.1.33.23l.1.2.26.58c.04.1.05.2.04.28 0 .1.03.18.1.22l.1.07c.13.1.2.25.18.42l-.07.47-.02.2c-.02.1.03.23.12.3.15.1.22.23.23.38v.2c0 .1-.02.22-.1.3-.06.08-.1.18-.1.3l.03.23c0 .16.1.3.2.4.14.1.22.26.24.42.04.25.05.45.05.65v.23c0 .08 0 .16.03.24.02.07.07.14.13.18l.2.15c.2.13.34.3.42.53.1.22.13.45.13.68v.08c0 .18-.02.37-.08.54a.71.71 0 00.03.5c.08.14.13.3.15.47.04.2.02.4-.05.56l-.02.07c-.05.12-.13.23-.23.32-.1.1-.2.16-.26.23-.06.06-.1.16-.07.25l.03.14c.05.2.05.4 0 .58v.08c-.04.15-.1.28-.16.4-.07.13-.17.23-.3.3l-.15.1a.26.26 0 00-.12.22c0 .1-.04.2-.1.26l-.15.2c-.1.13-.23.24-.37.3-.14.1-.26.2-.35.3-.1.12-.18.26-.22.4-.04.18-.18.28-.33.28h-.54c-.14 0-.27.1-.33.22-.07.16-.14.27-.23.37a.8.8 0 00-.2.36c-.02.12-.12.2-.22.16-.13-.06-.26 0-.32.1-.12.2-.24.35-.37.48l-.07.06c-.13.1-.3.18-.45.18-.18 0-.27.08-.3.2-.03.1-.05.23-.06.34-.02.12-.06.23-.1.33l-.05.06c-.1.15-.18.3-.28.43l-.04.06c-.13.17-.3.3-.5.35a2 2 0 01-.66.1h-.14c-.1 0-.2.06-.27.16l-.06.1-.06.12-.13.22c-.1.18-.25.3-.45.36-.2.05-.43.07-.64.06l-.16-.02c-.14 0-.27-.04-.4-.1-.1-.04-.24 0-.3.1-.1.14-.22.22-.35.26l-.3.1c-.2.05-.42.05-.63 0l-.16-.05c-.1 0-.2-.05-.28-.1a.54.54 0 00-.3-.06l-.13.02c-.2.02-.38 0-.56-.05l-.27-.06a.57.57 0 01-.3-.23.393.393 0 00-.3-.2H9.9c-.2-.03-.38-.1-.5-.25L9 22.5l-.14-.12-.22-.16-.13-.1c-.15-.1-.33-.18-.52-.2l-.6-.1c-.06 0-.1-.02-.16-.03L7 21.74c-.1-.02-.2-.1-.27-.2-.06-.1-.17-.14-.27-.1-.2.08-.36.1-.52.13H5.8c-.26.02-.5-.02-.74-.13-.24-.1-.4-.25-.55-.44-.12-.17-.3-.3-.52-.34l-.28-.06c-.2-.04-.4-.12-.58-.24-.2-.14-.3-.27-.38-.43-.08-.15-.13-.32-.14-.5v-.08a.495.495 0 00-.35-.43c-.23-.07-.4-.17-.55-.3a.71.71 0 01-.22-.52l.02-.44c0-.17-.05-.32-.17-.43a.62.62 0 01-.2-.43l-.03-.36a5.29 5.29 0 00-.13-.78c-.06-.23.03-.46.22-.57l.07-.05c.1-.07.14-.2.08-.32l-.08-.1a.75.75 0 00-.3-.2c-.08-.02-.1-.1-.1-.15l.1-.12c.06-.07.05-.18 0-.24a.455.455 0 01-.13-.28l-.02-.7c0-.14.02-.28.06-.42.04-.12 0-.26-.12-.32zm9.9-1.32c.07-.07.06-.2 0-.25a.973.973 0 01-.23-.27l-.1-.16a1.46 1.46 0 00-.26-.34l-.02-.02a.86.86 0 01-.23-.3c-.05-.1-.05-.2 0-.3l.06-.1c.06-.1.1-.24.1-.36v-.04c0-.1-.04-.2-.1-.3-.04-.08-.08-.18-.1-.28V8.1c-.03-.12 0-.25.08-.35.08-.13.14-.25.17-.4v-.02c.04-.1.02-.23-.04-.33s-.08-.2-.04-.32l.07-.2c.06-.18.15-.34.27-.48l.14-.15.1-.12.06-.06c.06-.06.07-.16.02-.24-.05-.1-.08-.2-.06-.3l.02-.14c.03-.2.1-.4.23-.56l.04-.04c.15-.2.34-.33.56-.4l.27-.1c.12-.04.2-.17.2-.3 0-.16.05-.3.14-.43l.05-.05c.1-.17.22-.34.3-.52l.07-.13c.02-.03.03-.07.03-.1 0-.17-.1-.32-.26-.33L11.76 2c-.25-.02-.5 0-.74 0l-.85.1c-.13 0-.23.1-.24.24 0 .14-.1.26-.22.3l-.36.1-.1.03-.3.1c-.22.07-.4.23-.5.45l-.08.13c-.1.22-.27.4-.48.53-.2.13-.3.34-.32.58v.1c-.02.2-.08.4-.2.54l-.05.08c-.08.1-.1.23-.05.34.05.12.08.25.07.38v.53c0 .14-.1.26-.2.3-.14.05-.23.16-.27.3l-.05.2c-.04.2.03.4.2.52.16.12.26.3.3.52v.18c.03.2.14.4.32.5.18.12.32.3.4.5l.05.16c.08.22.26.35.46.37h.06c.18 0 .34.1.44.26.1.16.26.27.44.3l.28.08c.17.05.33.14.46.27l.02.02c.1.08.26.07.35-.04l.07-.08zm1.14-.92c.1.06.2.03.24-.06l.03-.05c.07-.14.16-.28.26-.4l.2-.3c.03 0 .04-.02.05-.04l.24-.32c.1-.1.22-.17.36-.17.13 0 .24-.07.3-.2.04-.14.1-.27.22-.38l.05-.06c.1-.1.2-.15.3-.2.13-.02.25-.04.37-.04h.3c.12 0 .22-.05.28-.15.06-.1.15-.17.25-.22l.1-.04c.16-.07.34-.12.52-.14l.2-.02c.12 0 .25 0 .37.07.1.07.23.06.33-.02l.07-.04c.15-.1.32-.18.5-.2h.02c.2-.04.38-.04.58-.03h.1c.2.03.37.1.5.25l.03.04c.1.1.26.18.4.18h.17c.05 0 .1-.02.13-.07.03-.03.08-.06.13-.06h.1c.14 0 .27.04.4.08l.17.07c.16.05.33.1.5.12h.12c.08 0 .13-.05.13-.12 0-.1-.02-.2-.07-.28L20.68 7c-.08-.13-.14-.27-.2-.4l-.02-.05c-.05-.1-.05-.2 0-.3V6.2a.17.17 0 00-.1-.2h-.08a.796.796 0 01-.4-.27l-.1-.1c-.1-.1-.16-.25-.2-.4-.05-.13-.16-.23-.3-.23h-.42a.552.552 0 01-.37-.22l-.04-.05c-.07-.1-.13-.22-.17-.34-.05-.1-.16-.16-.26-.13l-.12.04c-.2.07-.4.1-.6.08l-.16-.02c-.17 0-.33-.07-.46-.17l-.1-.07c-.08-.06-.16-.1-.25-.14-.1-.04-.18-.02-.24.05l-.05.06c-.1.1-.24.18-.38.2l-.54.03c-.1 0-.2.05-.27.12-.08.07-.17.12-.27.14h-.02c-.1 0-.2.07-.3.14v.02c-.1.1-.23.15-.36.15l-.04.02c-.12 0-.24 0-.36.03h-.12c-.17.03-.3.17-.34.35l-.04.23a1 1 0 01-.2.43c-.1.12-.22.2-.37.2H12.26c-.1.02-.2.13-.18.25.02.17 0 .32-.03.47l-.04.17c-.04.15-.14.27-.27.32l-.06.03h-.02c-.06.04-.1.13-.05.2.06.1.08.2.07.3l-.03.32c0 .12-.05.23-.1.33-.06.1-.06.2-.02.3l.1.22c.05.1.06.2.03.32-.03.1-.05.2-.04.3 0 .1.06.2.14.24l.02.02zm7.9 7.23c.1.1.25.14.37.06l.2-.13c.1-.07.18-.17.22-.3v-.02l.1-.3.06-.1.04-.1.04-.07c.04-.08.1-.14.2-.17l.04-.02c.08-.02.13-.1.13-.18 0-.1.05-.18.1-.25l.08-.07.2-.26v-.02c.06-.08.1-.17.12-.27.02-.1 0-.2-.04-.3l-.02-.04a.92.92 0 01-.07-.26l-.03-.28-.03-.3c0-.1.04-.2.1-.3a.97.97 0 00.16-.28v-.04l.02-.02c.02-.1-.03-.2-.12-.2-.1-.05-.2-.13-.23-.25l-.03-.06c-.05-.18-.08-.36-.08-.54l.02-.5v-.03a.3.3 0 00-.3-.3h-.02c-.2 0-.36-.06-.5-.2l-.08-.1-.2-.23-.26-.3c-.1-.14-.2-.26-.33-.38-.1-.1-.25-.2-.4-.22l-.2-.03c-.1-.02-.23-.07-.34-.14-.08-.06-.2-.04-.28.04l-.13.14-.06.04c-.07.02-.14-.02-.17-.1a.502.502 0 01.02-.38v-.06c0-.07-.06-.12-.12-.1h-.16c-.18 0-.36-.02-.53-.1l-.1-.04a.764.764 0 00-.33-.08c-.1 0-.2.02-.3.08l-.04.03c-.12.08-.26.12-.4.13h-.33c-.15 0-.3.05-.4.13-.13.08-.27.13-.42.16l-.27.04c-.12.03-.25.08-.36.17-.1.1-.24.16-.37.2l-.05.02a.74.74 0 00-.4.3l-.12.12a.27.27 0 000 .32c.06.1.18.13.3.1l.15-.06c.08-.03.17 0 .24.04.06.05.15.08.24.07l.25-.03c.14 0 .28 0 .42.04.15.05.28.1.4.2s.25.14.4.16c.15.02.3.05.44.1l.1.02c.1.03.18.1.24.2.05.08.1.2.1.3v.03c0 .12.1.2.2.2h.06c.16 0 .33.02.5.07l.07.03c.1.04.2.1.27.2.08.1.13.2.16.3l.03.14c.03.15.04.3.04.46v.05c0 .1.07.2.18.24.1.02.22.06.33.12l.05.02c.13.08.26.18.36.3l.05.07c.13.15.2.34.2.53v.07c0 .15-.03.3-.08.44-.04.12 0 .26.13.3l.07.05c.15.06.28.17.38.3.1.15.14.32.14.5v.3c-.02.1-.05.18-.1.25s-.05.17 0 .24l.06.1zm-6.4-5.12h-.02c-.04 0-.06.05-.05.1l.04.2c.04.16.06.32.08.48.02.16.1.3.22.4h.04c.15.12.24.3.25.48v.5c-.02.1 0 .2.06.28l.05.05c.1.12.14.26.15.4l.03.55c0 .13-.08.24-.2.26l-.1.02c-.07 0-.1.08-.1.15 0 .08.03.17.06.25v.02c.03.1.04.2.03.3l-.04.27c-.04.2-.1.38-.2.56l-.07.12a.43.43 0 01-.2.2c-.1.04-.17.12-.2.22l-.08.36c-.05.2-.14.4-.26.6h-.02c-.12.16-.27.3-.45.4l-.12.08-.3.15c-.1.04-.16.13-.18.24l-.05.33c-.03.2-.1.37-.24.5l-.13.15-.15.15L11 21c-.12.14-.3.2-.5.17l-.36-.07-.33-.04h-.09c-.04.04-.05.1-.02.16.07.12.18.2.3.2l.22.04c.1 0 .22.05.32.1.1.07.2.12.32.15h.02c.13.05.27.06.4.05l.15-.02c.17-.02.33 0 .47.06l.12.04c.05.02.13 0 .18-.05.06-.06.12-.1.2-.13l.08-.02c.13-.04.26-.06.4-.06h.08c.12 0 .23.02.33.08l.04.02c.07.03.15 0 .2-.06.03-.07.1-.14.17-.2l.25-.17.16-.1.08-.05c.1-.07.24-.1.36-.1l.36-.03c.14-.02.26-.12.3-.26.04-.15.1-.3.2-.43s.2-.24.3-.34c.13-.1.26-.15.4-.16h.08c.16-.03.28-.18.27-.34v-.67c.02-.1.06-.23.12-.33l.2-.3.08-.1c.06-.05.1-.12.17-.2l.1-.13a.27.27 0 00-.02-.32c-.1-.1-.15-.24-.17-.38v-.04c-.02-.16-.02-.33.03-.5v-.05c.05-.13.12-.26.2-.38.08-.1.07-.24-.03-.32l-.17-.15a.74.74 0 01-.24-.48l-.02-.2c0-.06 0-.13-.02-.2l-.02-.15a.573.573 0 00-.26-.4l-.07-.02c-.1-.06-.2-.15-.28-.27-.08-.1-.12-.24-.15-.38l-.03-.17c0-.06-.04-.1-.1-.13l-.16-.05-.32-.1c-.1-.02-.2-.1-.27-.17h-.02a.143.143 0 00-.22-.02l-.1.1c-.02.03-.04.04-.07.03-.06 0-.1-.05-.08-.1a.454.454 0 00-.17-.42l-.13-.1-.3-.2c-.08-.03-.2 0-.24.1l-.04.06c0 .02-.03.03-.04.04-.04 0-.1 0-.1-.05l-.03-.05c-.03-.06-.1-.1-.16-.12zm-1.2 1l-.05-.05c-.05-.04-.1-.03-.15.02-.07.12-.13.25-.16.38v.02c-.03.13-.15.22-.27.2H11.35c-.14 0-.25.12-.25.26 0 .18-.06.36-.17.5l-.06.06c-.1.13-.25.22-.4.27l-.08.02c-.1.03-.18.1-.2.22 0 .1-.06.2-.14.28l-.1.08c-.12.13-.3.2-.48.22l-.5.05c-.16 0-.3.1-.4.25-.1.15-.25.25-.4.27l-.22.02c-.16.02-.33.02-.5-.02l-.1-.02-.27-.07c-.1-.03-.18 0-.24.07l-.1.13a.58.58 0 01-.5.2l-.65-.08c-.1 0-.18-.05-.27-.1-.1-.06-.17-.13-.24-.2l-.25-.3c-.03-.02-.08-.03-.13-.02l-.14.06-.56.14c-.1.03-.23 0-.33-.06-.1-.08-.22-.1-.34-.1H3.2c-.12.03-.2.16-.16.28l.04.2c.03.1.02.22-.03.32s-.04.2.03.3l.06.08c.08.12.2.22.3.32.1.1.2.2.28.33l.15.27c.08.14.2.22.36.22.15 0 .3.05.42.15l.3.28c.08.07.2.08.28.02l.05-.02c.06 0 .1.04.1.1v.05c0 .13.1.25.23.3l.45.1c.16.05.32.1.47.2h.08c.08 0 .15-.07.14-.16v-.35c0-.1.04-.2.12-.24l.05-.02c.05.02.1.06.08.1v.17c0 .13.04.25.13.34.1.1.23.12.34.08.12-.05.24-.06.37-.05l.37.02c.18.02.35 0 .5-.07.18-.06.33-.14.47-.25l.06-.04.3-.27c.1-.1.23-.15.35-.15h.4c.2-.02.38-.2.4-.4l.04-.2c0-.13.06-.25.15-.35.1-.1.2-.16.3-.2l.12-.05c.17-.07.3-.22.36-.4l.06-.24c.05-.2.15-.4.3-.53l.02-.02c.12-.1.14-.3.06-.44l-.03-.07a.42.42 0 01-.03-.38c.05-.14.1-.26.18-.38l.1-.14c.04-.08.04-.2-.02-.27a.478.478 0 01-.1-.28l-.02-.14v-.34c.02-.1 0-.23-.03-.33l-.04-.12zm-1.43-.76v-.03c0-.1-.06-.16-.14-.16h-.26c-.1.02-.2.02-.28 0h-.45c-.23 0-.45-.04-.67-.1l-.24-.06-.2-.06-.45-.15a.849.849 0 01-.53-.45l-.05-.1a.337.337 0 00-.37-.2c-.17 0-.34 0-.5-.08l-.12-.05c-.23-.1-.4-.3-.4-.57l-.04-.27c-.03-.14-.12-.27-.24-.32-.14-.06-.27-.14-.4-.23l-.05-.03a1.1 1.1 0 01-.35-.47l-.02-.06a.94.94 0 01-.02-.5l.02-.06c.04-.13.05-.26.05-.4a.47.47 0 00-.14-.33l-.14-.13a.726.726 0 01-.27-.53c-.02-.22-.02-.43.02-.64v-.06a.2.2 0 00-.2-.2H4.2c-.13 0-.24.08-.3.2-.05.14-.13.25-.22.36l-.04.05-.2.2-.1.1c-.1.1-.16.25-.18.4-.02.15-.06.3-.12.44l-.02.05c-.05.12-.13.23-.23.3-.1.08-.17.2-.17.32l-.02.46c0 .2-.03.4-.1.6l-.02.08c-.05.13 0 .27.12.33l.42.18.04.02c.03 0 .04.02.05.05.03.04 0 .1-.03.1l-.1.05c-.06.02-.1.08-.12.15l-.02.1v.02l-.1.56c-.02.08-.02.17-.02.26 0 .08.05.15.12.18l.22.1c.1.06.22.13.3.2l.1.08c.03.04.08.08.12.1l.04.04c.07.06.12.14.14.23l.1.45c0 .12.1.22.2.25l.16.05s.03 0 .05.02l.2.06c.16.05.3.14.42.26.12.1.24.23.34.37l.04.04c.08.1.2.15.32.12s.25-.04.38-.04h.15c.1 0 .23.03.34.1.1.06.23.1.35.15h.03c.12.05.25.03.35-.04.1-.08.23-.12.36-.12l.47.03c.1 0 .2-.02.25-.1h.02l.17-.16.05-.05c.08-.1.2-.14.32-.15h.45c.12 0 .23-.1.28-.2.05-.1.15-.18.27-.2l.2-.04c.08 0 .15-.07.18-.16.03-.1.08-.18.15-.24l.16-.16c.1-.1.15-.2.17-.32z"/></symbol><symbol viewBox="0 0 48 48" id="svg--css3" xmlns="http://www.w3.org/2000/svg"><path fill="#0277BD" d="M41 5H7l3 34 14 4 14-4 3-34z"/><path fill="#039BE5" d="M24 8v31.9l11.2-3.2L37.7 8z"/><path fill="#FFF" d="M33.1 13H24v4h4.9l-.3 4H24v4h4.4l-.3 4.5-4.1 1.4v4.2l7.9-2.6.7-11.5z"/><path fill="#EEE" d="M24 13v4h-8.9l-.3-4H24zm-4.6 8l.2 4H24v-4h-4.6zm.4 6h-4l.3 5.5 7.9 2.6v-4.2l-4.1-1.4-.1-2.5z"/></symbol><symbol viewBox="0 0 256 108" preserveAspectRatio="xMinYMin meet" id="svg--git" xmlns="http://www.w3.org/2000/svg"><path d="M152.984 37.214c-5.597 0-9.765 2.748-9.765 9.362 0 4.983 2.747 8.443 9.463 8.443 5.693 0 9.56-3.355 9.56-8.65 0-6-3.46-9.155-9.258-9.155zm-11.19 46.701c-1.325 1.625-2.645 3.353-2.645 5.39 0 4.067 5.186 5.291 12.31 5.291 5.9 0 13.938-.414 13.938-5.9 0-3.261-3.867-3.462-8.753-3.768l-14.85-1.013zm30.113-46.394c1.828 2.34 3.764 5.597 3.764 10.276 0 11.292-8.851 17.904-21.667 17.904-3.259 0-6.209-.406-8.038-.914l-3.359 5.39 9.969.61c17.602 1.122 27.975 1.632 27.975 15.157 0 11.702-10.272 18.311-27.975 18.311-18.413 0-25.433-4.68-25.433-12.716 0-4.578 2.035-7.015 5.596-10.378-3.358-1.419-4.476-3.961-4.476-6.71 0-2.24 1.118-4.273 2.952-6.208 1.83-1.93 3.864-3.865 6.306-6.103-4.984-2.442-8.75-7.732-8.75-15.262 0-11.697 7.733-19.731 23.295-19.731 4.376 0 7.022.402 9.362 1.017h19.84v8.644l-9.361.713zm27.259-18.487c-5.8 0-9.157-3.36-9.157-9.161 0-5.793 3.356-8.95 9.157-8.95 5.9 0 9.258 3.157 9.258 8.95 0 5.801-3.357 9.161-9.258 9.161zM186.04 80.171v-8.033l5.19-.71c1.425-.205 1.627-.509 1.627-2.038V39.48c0-1.116-.304-1.832-1.325-2.134l-5.492-1.935 1.118-8.238h21.061V69.39c0 1.63.098 1.833 1.629 2.039l5.188.71v8.032H186.04zm69.227-3.944c-4.376 2.135-10.785 4.068-16.586 4.068-12.106 0-16.682-4.878-16.682-16.38V37.264c0-.61 0-1.017-.817-1.017h-7.12V27.19c8.955-1.02 12.513-5.496 13.632-16.585h9.666v14.45c0 .71 0 1.017.815 1.017h14.343v10.173H237.36v24.313c0 6.002 1.426 8.34 6.917 8.34 2.852 0 5.799-.71 8.24-1.626l2.75 8.954" fill="#2F2707"/><path d="M104.529 49.53L58.013 3.017a6.86 6.86 0 00-9.703 0l-9.659 9.66 12.253 12.252a8.145 8.145 0 018.383 1.953 8.157 8.157 0 011.936 8.434L73.03 47.125c2.857-.984 6.154-.347 8.435 1.938a8.161 8.161 0 010 11.545 8.164 8.164 0 01-13.324-8.88L57.129 40.716l-.001 28.98a8.248 8.248 0 012.159 1.544 8.164 8.164 0 010 11.547c-3.19 3.19-8.36 3.19-11.545 0a8.164 8.164 0 012.672-13.328v-29.25a8.064 8.064 0 01-2.672-1.782c-2.416-2.413-2.997-5.958-1.759-8.925l-12.078-12.08L2.011 49.314a6.863 6.863 0 000 9.706l46.516 46.514a6.862 6.862 0 009.703 0l46.299-46.297a6.866 6.866 0 000-9.707" fill="#DE4C36"/></symbol><symbol viewBox="0 0 24 24" id="svg--github" xmlns="http://www.w3.org/2000/svg"><path d="M12 .297c-6.63 0-12 5.373-12 12 0 5.303 3.438 9.8 8.205 11.385.6.113.82-.258.82-.577 0-.285-.01-1.04-.015-2.04-3.338.724-4.042-1.61-4.042-1.61C4.422 18.07 3.633 17.7 3.633 17.7c-1.087-.744.084-.729.084-.729 1.205.084 1.838 1.236 1.838 1.236 1.07 1.835 2.809 1.305 3.495.998.108-.776.417-1.305.76-1.605-2.665-.3-5.466-1.332-5.466-5.93 0-1.31.465-2.38 1.235-3.22-.135-.303-.54-1.523.105-3.176 0 0 1.005-.322 3.3 1.23.96-.267 1.98-.399 3-.405 1.02.006 2.04.138 3 .405 2.28-1.552 3.285-1.23 3.285-1.23.645 1.653.24 2.873.12 3.176.765.84 1.23 1.91 1.23 3.22 0 4.61-2.805 5.625-5.475 5.92.42.36.81 1.096.81 2.22 0 1.606-.015 2.896-.015 3.286 0 .315.21.69.825.57C20.565 22.092 24 17.592 24 12.297c0-6.627-5.373-12-12-12"/></symbol><symbol viewBox="0 0 128 128" id="svg--gulp" xmlns="http://www.w3.org/2000/svg"><path fill="#EB4A4B" fill-rule="evenodd" d="M36.965 35.459c.877 9.232 1.747 18.412 2.637 27.798 1.451-2.495 2.501-4.888 4.085-6.848 1.475-1.826 3.334-3.511 5.357-4.678 2.641-1.524 6.104-.089 6.96 2.614.23.725-.319 1.697-.511 2.556-.646-.341-1.479-.529-1.901-1.051-1.793-2.217-2.873-2.479-4.856-.563-3.699 3.576-5.779 8.056-6.573 13.091-.153.974.456 2.067.713 3.105 1.011-.348 2.185-.476 3.002-1.084 2.656-1.977 4.302-4.666 5.21-7.88.197-.696 1.265-1.145 1.933-1.708.32.658 1.05 1.433.897 1.954a373.814 373.814 0 01-4.536 14.429c-.162.484-1.051.725-1.604 1.079-.223-.636-.692-1.302-.617-1.901.168-1.358.605-2.683.91-3.927l-7.24 3.333c.405 4.622.825 9.807 1.323 14.985.382 3.954 1.029 4.978 4.923 5.728 4.544.875 9.173 1.434 13.792 1.774a60.391 60.391 0 0020.23-1.904c2.472-.664 3.458-2.29 3.635-4.717.162-2.235.524-4.456.775-6.685.493-4.391.972-8.783 1.476-13.358-1.667 1.056-2.978 2.238-4.511 2.739-1.116.365-2.524-.169-3.803-.303.245-1.174.23-2.497.796-3.487.922-1.618 2.224-3.021 3.364-4.515l-.491-.591c-.817.483-1.832.8-2.413 1.485-1.182 1.394-2.339 2.886-3.13 4.52-1.324 2.735-2.333 5.622-3.518 8.426-.515 1.216-.959 3.076-2.684 2.366-1.845-.761-.547-2.386-.114-3.542.689-1.844 1.599-3.606 2.215-4.962-1.746.208-3.516.459-5.294.614-.752.064-1.646-.348-2.261-.07-2.045.924-3.341.553-3.766-1.711-.947.615-1.749 1.448-2.694 1.672-1.147.273-2.703.452-3.543-.121-.673-.459-.918-2.184-.688-3.196.457-2.012 1.311-3.946 2.122-5.859.502-1.185 1.007-3.077 2.701-2.253 1.674.813.154 2.185-.232 3.286-.599 1.702-1.209 3.401-1.813 5.101l.96.58c.914-.794 2.053-1.441 2.693-2.415 1.048-1.592 1.681-3.452 2.673-5.086.411-.677 1.296-1.065 1.967-1.584.136.862.462 1.748.354 2.58-.107.841-.698 1.61-.981 2.442-.425 1.246-.768 2.52-1.2 3.969 2.043.078 2.918-.782 3.495-2.299 1.826-4.793 3.672-9.581 5.679-14.3.343-.808 1.509-1.264 2.296-1.884.091.974.525 2.078.216 2.899-1.645 4.349-3.492 8.62-5.228 12.935-.293.727-.387 1.534-.572 2.304 3.059-1.375 5.612-2.895 6.544-6.146.228-.79 1.162-1.377 1.771-2.058l1.416 1.5c.43-.362.824-.774 1.291-1.075 1.47-.947 3.053-1.782 4.603-.315 1.604 1.517.39 2.995-.448 4.307-.912 1.431-2.029 2.73-3.057 4.086 2.312-1.49 5.469-2.158 5.889-5.378 1.024-7.865 1.924-15.746 2.837-23.625.271-2.332.416-4.679.627-7.109-18.21 4.409-36.029 4.436-54.088-.069zm7.816 61.369c.877 2.317 2.209 4.593 2.558 7.011.737 5.147.924 10.372 1.446 15.554.076.755.565 1.792 1.175 2.124 8.98 4.88 18.047 5.726 27.209.389 1.367-.796 1.62-1.847 1.797-3.325.857-7.181-1.051-14.798 3.54-21.56-12.856 3.189-25.403 3.288-37.725-.193zm30.991-60.08c4.362-.421 8.671-1.445 12.985-2.291.813-.159 1.535-.778 2.299-1.185-1.007-.885-1.878-1.311-2.788-1.418-4.53-.535-9.076-.947-13.603-1.508-.684-.085-1.905-.929-1.854-1.083 1.321-3.98 1.256-8.485 4.254-11.839 3.789-4.24 7.617-8.443 11.416-12.648-2.826-3.04-2.864-3.044-5.425-.383-1.448 1.504-2.771 3.15-4.342 4.512-5.813 5.038-9.896 11.005-10.692 18.872-.183 1.805-1.174 2.457-3.069 2.485-6.256.091-12.519.263-18.761.674-3.093.203-6.148.997-9.221 1.523l-.028 1.149c1.923.593 3.809 1.372 5.773 1.749 10.944 2.098 21.991 2.458 33.056 1.391zM72.276 34c-2.477 2-4.524 2-6.501 0h6.501z" clip-rule="evenodd"/></symbol><symbol viewBox="0 0 48 48" id="svg--html" xmlns="http://www.w3.org/2000/svg"><path fill="#E65100" d="M41 5H7l3 34 14 4 14-4 3-34z"/><path fill="#FF6D00" d="M24 8v31.9l11.2-3.2L37.7 8z"/><path fill="#FFF" d="M24 25v-4h8.6l-.7 11.5-7.9 2.6v-4.2l4.1-1.4.3-4.5H24zm8.9-8l.3-4H24v4h8.9z"/><path fill="#EEE" d="M24 30.9v4.2l-7.9-2.6-.4-5.5h4l.2 2.5 4.1 1.4zM19.1 17H24v-4h-9.1l.7 12H24v-4h-4.6l-.3-4z"/></symbol><symbol viewBox="0 0 128 128" id="svg--jquery" xmlns="http://www.w3.org/2000/svg"><path fill="#0868AC" d="M27.758 20.421c-7.352 10.565-6.437 24.312-.82 35.54l.411.798.263.506.164.291.293.524c.174.307.353.612.536.919l.306.504c.203.326.41.65.622.973l.265.409c.293.437.592.872.901 1.301l.026.033.152.205c.267.368.542.732.821 1.093l.309.393c.249.313.502.623.759.934l.29.346c.345.406.698.812 1.057 1.208l.021.022.041.045c.351.383.71.758 1.075 1.133l.344.347c.282.284.569.563.858.841l.351.334c.387.364.777.722 1.176 1.07l.018.016.205.174c.351.305.708.605 1.068.902l.442.353c.294.235.591.468.89.696l.477.361c.33.243.663.482.999.717l.363.258.101.072c.318.22.645.431.97.642l.42.28c.5.315 1.007.628 1.519.93l.42.237c.377.217.756.431 1.14.639l.631.326.816.424.188.091.334.161c.427.204.858.405 1.293.599l.273.122c.498.218 1.001.427 1.508.628l.368.144c.469.182.945.359 1.423.527l.179.062c.524.184 1.054.353 1.587.52l.383.114c.542.164 1.079.358 1.638.462 35.553 6.483 45.88-21.364 45.88-21.364-8.674 11.3-24.069 14.28-38.656 10.962-.553-.125-1.089-.298-1.628-.456l-.406-.124a44.793 44.793 0 01-1.568-.51l-.215-.077a49.537 49.537 0 01-1.382-.513l-.388-.152c-.501-.198-1-.405-1.492-.62l-.298-.133a55.398 55.398 0 01-1.259-.585l-.364-.175c-.327-.159-.65-.328-.974-.495l-.649-.341c-.395-.21-.782-.43-1.167-.654l-.394-.219a58.203 58.203 0 01-1.52-.932l-.41-.273a40.515 40.515 0 01-1.081-.719l-.349-.245a54.203 54.203 0 01-1.022-.738l-.453-.343c-.31-.237-.618-.476-.922-.721l-.411-.33c-.388-.318-.771-.64-1.149-.969l-.126-.105a54.797 54.797 0 01-1.208-1.098l-.34-.328a33.158 33.158 0 01-.868-.851l-.34-.34c-.362-.37-.717-.745-1.065-1.126l-.053-.057a41.973 41.973 0 01-1.08-1.229l-.283-.336a44.66 44.66 0 01-.777-.961l-.285-.355a52.469 52.469 0 01-.898-1.195c-8.098-11.047-11.008-26.283-4.535-38.795m17.081-1.626c-5.316 7.65-5.028 17.893-.88 25.983a33.747 33.747 0 002.351 3.925c.796 1.143 1.68 2.501 2.737 3.418.383.422.784.834 1.193 1.238l.314.311c.397.385.801.764 1.218 1.132l.05.043.012.012c.462.405.939.794 1.423 1.178l.323.252c.486.372.981.738 1.489 1.087l.043.033.68.447.322.213c.363.233.73.459 1.104.676l.156.092c.322.185.648.367.975.545l.347.18.682.354.103.047c.469.23.941.453 1.424.663l.314.13c.386.163.775.323 1.167.473l.5.184c.356.132.712.253 1.072.373l.484.155c.511.158 1.017.359 1.549.448 27.45 4.547 33.787-16.588 33.787-16.588-5.712 8.228-16.775 12.153-28.58 9.089a34.726 34.726 0 01-1.555-.449l-.467-.151a29 29 0 01-1.087-.374l-.491-.183a38.673 38.673 0 01-1.171-.473l-.315-.133a32.78 32.78 0 01-1.432-.666l-.718-.365-.414-.213c-.306-.166-.61-.338-.909-.514l-.217-.123a30.75 30.75 0 01-1.1-.672l-.332-.221-.712-.472a37.364 37.364 0 01-1.484-1.085l-.334-.264c-5.167-4.079-9.263-9.655-11.21-15.977-2.041-6.557-1.601-13.917 1.935-19.891m14.847-.518c-3.134 4.612-3.442 10.341-1.267 15.435 2.293 5.407 6.992 9.648 12.477 11.66l.682.235.3.096c.323.102.644.22.978.282 15.157 2.929 19.268-7.777 20.362-9.354-3.601 5.185-9.653 6.43-17.079 4.627a18.837 18.837 0 01-1.796-.555 22.303 22.303 0 01-2.134-.886 22.19 22.19 0 01-3.741-2.282c-6.645-5.042-10.772-14.659-6.436-22.492"/><path fill="#131B28" d="M66.359 96.295h-4.226a.556.556 0 00-.517.417l-1.5 6.94-1.5 6.94a.554.554 0 01-.516.417h-2.991c-2.959 0-2.617-2.047-2.011-4.851l.018-.085.066-.354.012-.066.135-.72.145-.771.154-.785.682-3.332.683-3.332a.336.336 0 00-.341-.419h-4.337a.55.55 0 00-.514.418l-.933 4.424-.932 4.425-.002.006-.086.412c-1.074 4.903-.79 9.58 5.048 9.727l.17.003h9.163a.554.554 0 00.516-.417l1.976-9.289 1.976-9.29c.049-.23-.103-.417-.338-.418zm-45.256-.049h-4.64a.562.562 0 00-.521.416l-.44 1.942-.44 1.942c-.051.229.098.416.333.416h4.676a.556.556 0 00.518-.417l.425-1.941.425-1.941c.049-.229-.101-.417-.336-.417zm-1.346 6.044H15.08a.563.563 0 00-.521.416l-.657 2.91-.656 2.909-.183.834-.631 2.97-.63 2.971c-.049.229-.15.599-.225.821 0 0-.874 2.6-2.343 2.57l-.184-.004-1.271-.023h-.001a.558.558 0 00-.524.407l-.485 2.039-.484 2.038c-.055.228.093.416.326.42.833.01 2.699.031 3.828.031 3.669 0 5.604-2.033 6.843-7.883l1.451-6.714 1.361-6.297c.049-.227-.103-.415-.337-.415zm86.117-1.574l-.194-.801-.191-.82-.097-.414c-.38-1.477-1.495-2.328-3.917-2.328l-3.77-.004-3.472-.005h-3.907a.552.552 0 00-.515.417l-.173.816-.204.964-.057.271-1.759 8.24-1.67 7.822c-.05.23-.066.512-.038.626.028.115.479.209.713.209h3.524c.235 0 .532-.042.66-.094s.317-.513.364-.742l.626-3.099.627-3.1.001-.005.084-.413.76-3.56.671-3.144a.555.555 0 01.515-.417l11.089-.005c.235.002.383-.185.33-.414zm14.275-7.24l-.854.003h-3.549a.904.904 0 00-.667.353l-7.849 11.498c-.132.194-.283.166-.335-.062l-.578-2.533a.562.562 0 00-.522-.416h-5.045c-.235 0-.374.184-.31.409l2.261 7.921c.064.226.069.596.011.824l-.985 3.833c-.059.228.085.413.32.413h4.987a.58.58 0 00.532-.413l.986-3.833a2.52 2.52 0 01.363-.755l12.742-16.911c.142-.188.065-.341-.169-.339l-1.339.008zm-40.086 9.919v-.004a.514.514 0 01-.499.441h-6.397c-.222 0-.334-.15-.301-.336l.006-.015-.004.002.003-.021.029-.109c.611-1.624 1.855-2.69 4.194-2.69 2.634-.001 3.148 1.285 2.969 2.732zm-1.877-7.384c-8.211 0-10.157 4.984-11.249 10.015-1.091 5.128-.998 9.921 7.5 9.921h1.03l.256-.001h.06l1.02-.003h.018c2.244-.009 4.495-.026 5.406-.033a.553.553 0 00.509-.42l.344-1.681.067-.327.41-2.006a.335.335 0 00-.341-.418h-7.639c-3.039 0-3.941-.807-3.608-3.181H84.18l-.001.001.008-.001a.503.503 0 00.445-.315l.029-.106-.001.001c1.813-6.839 1.293-11.445-6.474-11.446zm-38.81 7.358l-.116.409v.001l-.922 3.268-.922 3.267a.596.596 0 01-.543.411h-4.88c-3.702 0-4.604-2.896-3.702-7.166.901-4.368 2.668-7.083 6.312-7.358 4.98-.376 5.976 3.126 4.773 7.168zm3.348 7.105s2.301-5.588 2.823-8.814c.713-4.319-1.45-10.585-9.804-10.585-8.306 0-11.914 5.981-13.29 12.484-1.376 6.55.427 12.293 8.686 12.246l6.516-.024 6.089-.022a.59.59 0 00.534-.414l1.061-4.046c.059-.228-.084-.414-.319-.416l-1.017-.006-1.017-.006c-.199-.001-.313-.131-.289-.302l.027-.095zm41.12-3.741a.28.28 0 11-.56.001.28.28 0 01.56-.001z"/></symbol><symbol viewBox="0 0 48 48" id="svg--js" xmlns="http://www.w3.org/2000/svg"><path fill="#ffd600" d="M6 42V6h36v36H6z"/><path fill="#000001" d="M29.538 32.947c.692 1.124 1.444 2.201 3.037 2.201 1.338 0 2.04-.665 2.04-1.585 0-1.101-.726-1.492-2.198-2.133l-.807-.344c-2.329-.988-3.878-2.226-3.878-4.841 0-2.41 1.845-4.244 4.728-4.244 2.053 0 3.528.711 4.592 2.573l-2.514 1.607c-.553-.988-1.151-1.377-2.078-1.377-.946 0-1.545.597-1.545 1.377 0 .964.6 1.354 1.985 1.951l.807.344C36.452 29.645 38 30.839 38 33.523 38 36.415 35.716 38 32.65 38c-2.999 0-4.702-1.505-5.65-3.368l2.538-1.685zm-11.586.082c.506.906 1.275 1.603 2.381 1.603 1.058 0 1.667-.418 1.667-2.043V22h3.333v11.101c0 3.367-1.953 4.899-4.805 4.899-2.577 0-4.437-1.746-5.195-3.368l2.619-1.603z"/></symbol><symbol viewBox="0 0 256 110" id="svg--less" xmlns="http://www.w3.org/2000/svg"><defs><path id="jb" d="M224.236 88.738c0 11.564-9.688 21.025-21.529 21.025H21.75c-11.841 0-21.529-9.461-21.529-21.025V21.781C.221 10.218 9.909.756 21.75.756h180.957c11.841 0 21.529 9.462 21.529 21.025v66.957"/><path id="jc" d="M-15.94.496H240V110H-15.94"/><linearGradient x1="50%" y1="0%" x2="50%" y2="100%" id="ja"><stop stop-color="#2E4F82" offset="0%"/><stop stop-color="#182E4D" offset="100%"/></linearGradient></defs><g transform="translate(16)" fill="none" fill-rule="evenodd"><use fill="url(#ja)" xlink:href="#jb"/><mask id="jd" fill="#fff"><use xlink:href="#jc"/></mask><use xlink:href="#jc"/><path d="M229.071 40.43c0-8.197 1.261-13.031 1.261-21.858 0-13.662-5.045-18.076-16.184-18.076h-8.197v9.668h2.522c5.675 0 6.936 1.892 6.936 8.828 0 6.515-.631 13.031-.631 20.598 0 9.668 3.153 13.451 9.458 14.922v.631c-6.305 1.471-9.458 5.255-9.458 14.923 0 7.566.631 13.662.631 20.598 0 7.146-1.471 9.037-6.936 9.037v.21h-2.522V110h8.197c11.139 0 16.184-4.414 16.184-18.075 0-9.038-1.261-13.662-1.261-21.859 0-4.414 2.732-9.038 10.929-9.458v-10.93c-8.197-.21-10.929-4.834-10.929-9.248m-93.11 12.821c-6.516-2.522-12.401-3.993-12.401-8.197 0-3.152 2.522-5.044 7.146-5.044 4.624 0 8.828 1.892 13.452 5.255l8.407-11.14c-5.255-3.993-12.401-8.197-22.069-8.197-14.292 0-23.961 8.197-23.961 19.757 0 10.299 9.038 15.553 16.605 18.496 6.515 2.522 12.821 4.624 12.821 8.827 0 3.153-2.523 5.255-8.197 5.255-5.255 0-10.509-2.102-16.184-6.516l-8.197 12.191c6.305 5.254 15.973 8.827 23.96 8.827 16.815 0 25.852-8.827 25.852-20.387s-9.037-16.394-17.234-19.127m50.863 0c-6.305-2.522-12.19-3.993-12.19-8.197 0-3.152 2.522-5.044 7.146-5.044 4.624 0 8.828 1.892 13.452 5.255l8.407-11.14c-5.255-3.993-12.401-8.197-22.069-8.197-14.293 0-23.961 8.197-23.961 19.757 0 10.299 9.038 15.553 16.604 18.496 6.516 2.522 12.821 4.624 12.821 8.827 0 3.153-2.522 5.255-8.197 5.255-5.254 0-10.509-2.102-16.183-6.516l-8.408 12.191c6.306 5.254 15.974 8.827 23.961 8.827 16.814 0 25.852-8.827 25.852-20.387s-9.038-16.394-17.235-19.127M61.977 52.2c1.261-8.407 6.305-12.4 12.19-12.4 7.567 0 10.51 5.254 10.51 12.4h-22.7zm38.673 3.784c.21-17.025-9.038-30.266-26.693-30.266-15.343 0-30.055 12.821-29.635 32.998 0 20.808 13.662 32.998 31.737 32.998 7.567 0 15.974-2.732 22.489-7.146l-6.305-11.139c-4.624 2.732-9.038 3.993-13.662 3.993-8.407 0-14.923-3.993-16.604-13.662h38.043c.21-1.471.63-4.413.63-7.776z" fill="#FAF9F8" mask="url(#jd)"/><path d="M43.271 77.002c-1.471 0-3.363-1.261-3.363-5.255V.496H10.062C-1.287.496-6.332 4.91-6.332 18.572c0 9.037 1.261 14.082 1.261 21.858 0 4.414-2.732 9.038-10.929 9.458v10.93c8.197.21 10.929 4.834 10.929 9.248 0 7.777-1.261 12.4-1.261 21.438 0 13.662 5.045 18.076 16.184 18.076h8.197v-9.669h-2.522c-5.254 0-6.936-2.101-6.936-9.037 0-6.936.631-12.821.631-20.598 0-9.668-3.153-13.452-9.459-14.923v-.63c6.306-1.472 9.459-5.255 9.459-14.923 0-7.567-.631-13.662-.631-20.598 0-6.936 1.471-8.827 6.936-8.827h5.675v60.321c0 12.821 4.414 21.229 17.235 21.229 3.993 0 7.146-.631 9.458-1.472l-2.102-13.661c-1.261.21-1.891.21-2.522.21" fill="#FAF9F8" mask="url(#jd)"/></g></symbol><symbol viewBox="0 0 192.756 192.756" id="svg--php" xmlns="http://www.w3.org/2000/svg"><path fill-rule="evenodd" clip-rule="evenodd" fill="#fff" d="M0 0h192.756v192.756H0V0z"/><defs><path id="ka" d="M96.378 141.648c47.528 0 86.06-20.27 86.06-45.271s-38.531-45.271-86.06-45.271-86.06 20.269-86.06 45.271c0 25.002 38.532 45.271 86.06 45.271z"/></defs><clipPath id="kb"><use xlink:href="#ka" overflow="visible"/></clipPath><g clip-path="url(#kb)"><defs><path id="kc" d="M10.318 51.107h172.119v90.541H10.318z"/></defs><clipPath id="kd"><use xlink:href="#kc" overflow="visible"/></clipPath></g><g clip-path="url(#kb)"><defs><path id="ke" d="M10.318 51.107h172.119v90.541H10.318z"/></defs><clipPath id="kf"><use xlink:href="#ke" overflow="visible"/></clipPath></g><path d="M96.378 138.287c45.673 0 82.698-18.764 82.698-41.909s-37.025-41.909-82.698-41.909c-45.672 0-82.698 18.764-82.698 41.909s37.026 41.909 82.698 41.909z" fill-rule="evenodd" clip-rule="evenodd" fill="#6e81b6"/><path d="M113.131 109.924l4.102-21.112c.926-4.765.156-8.319-2.287-10.565-2.367-2.173-6.385-3.23-12.283-3.23h-7.104l2.032-10.46a1.344 1.344 0 00-1.319-1.602h-9.805c-.644 0-1.197.457-1.32 1.089L80.79 86.457c-.396-2.522-1.372-4.69-2.934-6.479-2.876-3.292-7.425-4.961-13.522-4.961H45.33c-.644 0-1.197.457-1.32 1.088l-8.817 45.368c-.077.395.026.801.282 1.111.255.311.635.49 1.038.49h9.882c.644 0 1.197-.457 1.32-1.09l2.133-10.973h7.356c3.86 0 7.104-.418 9.636-1.242 2.589-.842 4.972-2.27 7.072-4.236 1.697-1.559 3.099-3.305 4.178-5.188l-1.761 9.064c-.077.395.026.803.282 1.111.255.311.636.49 1.038.49h9.805c.644 0 1.197-.457 1.32-1.088l4.839-24.903h6.728c2.867 0 3.707.571 3.936.816.207.224.637 1.013.154 3.5l-3.9 20.073a1.347 1.347 0 001.32 1.601h9.961a1.341 1.341 0 001.319-1.085zM67.673 92.48c-.616 3.165-1.776 5.422-3.45 6.709-1.7 1.311-4.419 1.975-8.082 1.975h-4.38l3.167-16.298h5.663c4.16 0 5.836.889 6.509 1.634.933 1.034 1.131 3.103.573 5.98zm86.759-12.502c-2.875-3.292-7.424-4.961-13.521-4.961h-19.004c-.645 0-1.197.457-1.32 1.088l-8.816 45.368c-.078.395.025.801.281 1.111s.637.49 1.037.49h9.883c.645 0 1.197-.457 1.32-1.09l2.133-10.973h7.357c3.861 0 7.102-.418 9.635-1.242 2.59-.842 4.973-2.27 7.072-4.236 1.752-1.609 3.193-3.418 4.285-5.371s1.875-4.131 2.332-6.475c1.123-5.781.224-10.393-2.674-13.709zm-9.621 12.502c-.617 3.165-1.777 5.422-3.449 6.709-1.701 1.311-4.42 1.975-8.082 1.975h-4.381l3.166-16.298h5.664c4.16 0 5.836.889 6.51 1.634.931 1.034 1.13 3.103.572 5.98z" fill-rule="evenodd" clip-rule="evenodd" fill="#fff"/><path d="M60.591 83.521c3.754 0 6.257.693 7.508 2.079 1.25 1.386 1.548 3.766.894 7.137-.684 3.511-2 6.017-3.95 7.519s-4.918 2.252-8.902 2.252h-6.012l3.69-18.987h6.772zm-24.079 38.208h9.882l2.345-12.061h8.465c3.735 0 6.808-.393 9.22-1.178s4.605-2.1 6.578-3.947c1.656-1.521 2.996-3.201 4.022-5.037 1.025-1.836 1.753-3.861 2.184-6.076 1.046-5.378.257-9.567-2.365-12.567-2.621-3.001-6.792-4.501-12.509-4.501H45.33l-8.818 45.367zM86.466 64.3h9.805l-2.344 12.062h8.736c5.494 0 9.287.958 11.373 2.875 2.086 1.917 2.711 5.024 1.877 9.319l-4.102 21.112h-9.961l3.9-20.074c.443-2.284.281-3.841-.49-4.672-.771-.83-2.412-1.246-4.92-1.246h-7.836l-5.051 25.992h-9.805L86.466 64.3zm51.263 19.221c3.754 0 6.256.693 7.508 2.079 1.25 1.386 1.547 3.766.893 7.137-.682 3.511-1.998 6.017-3.949 7.519-1.949 1.502-4.918 2.252-8.9 2.252h-6.012l3.689-18.987h6.771zm-24.081 38.208h9.883l2.344-12.061h8.465c3.736 0 6.809-.393 9.221-1.178s4.605-2.1 6.578-3.947c1.656-1.521 2.996-3.201 4.021-5.037s1.754-3.861 2.186-6.076c1.045-5.378.256-9.567-2.365-12.567-2.623-3.001-6.793-4.501-12.51-4.501h-19.004l-8.819 45.367z" fill-rule="evenodd" clip-rule="evenodd"/></symbol><symbol viewBox="0 0 128 128" id="svg--pug" xmlns="http://www.w3.org/2000/svg"><style>.lst1{fill:#efcca3}.lst3{fill:#ccac8d}.lst4{fill:#fff}.lst7{fill:#56332b}.lst8{fill:#442823}.lst9{fill:#7f4a41}.lst10{fill:#331712}</style><path class="lst1" d="M107.4 50.9c-.2-4.4.4-8.3-1.6-11.6-4.8-8.2-16.8-13-40.8-13v.7h-.5.5v-.7c-24 0-36.6 4.8-41.4 13.1-1.9 3.4-1.7 7.2-2 11.6-.2 3.5-1.8 7.2-1.1 11.2.8 5.2 1.1 10.4 1.9 15.2.6 3.9 6 7.2 6.5 10.9 1.4 10.2 12 14.9 36 14.9v.8h-.6.7v-.8c24 0 34.2-4.7 35.5-14.9.5-3.8 5.5-7 6.1-10.9.8-4.8 1.1-10 1.9-15.2.7-4-.9-7.8-1.1-11.3z"/><path class="lst3" d="M64.6 54.5c4.3.1 7.3 2.8 10.1 5.3 3.3 2.9 8.9 4.9 11.2 7.4 2.3 2.5 5.3 5 6.4 8.9 1.1 3.9 1.4 8.9 1.4 10.2 0 1.3.7 1 2.7 0 4.7-2.3 9.9-8.5 9.9-8.5-.6 3.9-5.7 7.4-6.2 11.1C98.9 99.1 89 104 64.5 104h-.1.6"/><path class="lst3" d="M80.4 46.7c.9 3.1 4.1 13.6-2.1 10.1 0 0 2.6 1.5 4.2 7.2 1.7 5.7 5.8 6.4 5.8 6.4s6.7 1.3 11.7-3c4.2-3.6 4.9-10 3.1-14.9-1.8-4.8-5-6.3-9.7-7.3-4.7-1.1-14.1-2-13 1.5z"/><circle cx="92.3" cy="58.1" r="8.8"/><circle class="lst4" cx="90" cy="54.2" r="2.3"/><path class="lst1" d="M78.9 57.7s7.9 5.4 12.2 10.7c4.3 5.3 4.2 6.3 4.2 6.3l-3.1 1.4s-4.4-8.3-9.8-11.4c-5.5-3.1-6.1-5.7-6.1-5.7l2.6-1.3z"/><path class="lst3" d="M64.9 54.5c-4.3.1-7.5 2.8-10.4 5.3-3.3 2.9-9.1 4.9-11.4 7.4-2.3 2.5-5.4 5-6.5 8.9-1.1 3.9-1.5 8.9-1.5 10.2 0 1.3.2 1.4-2.7 0-4.7-2.2-9.9-8.5-9.9-8.5.6 3.9 5.7 7.4 6.2 11.1C30.1 99.1 40 104 64.5 104h.5"/><path class="lst7" d="M88.1 71.4C83.3 65.5 75.6 60 64.9 60h-.1c-10.7 0-18.4 5.5-23.2 11.4-5 6.1-4.6 8.5-4.6 14.3 0 21 7.4 15 12.3 17.6 5 2.5 10.2 1.7 15.5 1.7h.1c5.4 0 10.5.7 15.5-1.8 4.9-2.5 12.3 3.7 12.3-17.3.1-5.8.4-8.4-4.6-14.5z"/><path class="lst8" d="M64.4 65.2s-.7 9.7-2.1 11.6l2.6-.6-.5-11z"/><path class="lst8" d="M65.1 65.2s.7 9.7 2.1 11.6l-2.6-.6.5-11z"/><path class="lst7" d="M56.7 62.9c-1-2.3 2.6-6 8.3-6.1 5.7 0 9.3 3.7 8.3 6.1-1 2.4-4.6 3.1-8.3 3.2-3.6-.1-7.3-.8-8.3-3.2z"/><path d="M65 65.2c0-.4 3.4-.5 5.2-1.7 0 0-3.7 1.2-4.5.7-.8-.4-1-1.6-1-1.6s-.3 1.2-.9 1.6c-.7.4-4.9-.7-4.9-.7s5.6 1.4 5.6 1.7c0 .3-.1 1.3-.1 2 0 2.5 0 8.7.4 9.2.6.9.4-6.7.4-9.2-.1-.8-.1-1.6-.2-2z"/><path class="lst9" d="M65.2 78.6c1.7 0 4.7 1.2 7.4 3.1-2.6-2.9-5.7-4.9-7.4-4.9-1.8 0-5.6 2.2-8.3 5.4 2.8-2.2 6.4-3.6 8.3-3.6z"/><path class="lst8" d="M64.5 96.3c-3.8 0-7.5-1.2-10.9-2.1-.7-.2-1.4.3-2.1.1-6.3-2-11.4-5.4-14.5-9.7v1c0 21 7.4 15.1 12.3 17.6 5 2.5 10.2 1.7 15.5 1.7h.1c5.4 0 10.5.7 15.5-1.8 4.9-2.5 12.3 3.6 12.3-17.4 0-.8 0-1.6.1-2.3-2.9 4.7-8.2 8.4-14.8 10.6-.6.2-2-.3-2.6-.2-3.6 1.2-6.8 2.5-10.9 2.5z"/><path class="lst8" d="M55 85s-2.5 7.5-.8 10.8l-2.3-1s1.7-7.6 3.1-9.8zm19.8 0s2.5 7.5.8 10.8l2.3-1s-1.8-7.6-3.1-9.8z"/><path class="lst3" d="M48.6 46.7c-.9 3.1-4.1 13.6 2.1 10.1 0 0-2.6 1.5-4.2 7.2s-5.8 6.4-5.8 6.4-6.7 1.3-11.7-3c-4.2-3.6-4.9-10-3.1-14.9s5-6.3 9.7-7.3c4.7-1.1 14-2 13 1.5z"/><path d="M64.9 76.8c2.7 0 11.1 5.8 11.2 12.9v-.4c0-7.4-6.8-13.3-11.2-13.3-4.4 0-11.2 6-11.2 13.3v.4c.1-7.1 8.5-12.9 11.2-12.9z"/><ellipse transform="rotate(-14.465 66.712 61.468)" class="lst10" cx="66.7" cy="61.5" rx=".8" ry="1.5"/><ellipse transform="rotate(17.235 62.371 61.462)" class="lst10" cx="62.4" cy="61.5" rx=".8" ry="1.5"/><circle cx="37.2" cy="58.1" r="8.8"/><circle class="lst4" cx="39.5" cy="54.2" r="2.3"/><path class="lst9" d="M67.5 58.2c0-.1-2.3 1-2.9 1.1-.6-.1-2.9-1.2-2.9-1.1h5.8z"/><path class="lst1" d="M50 57.7s-7.9 5.4-12.2 10.7c-4.3 5.3-4.2 6.3-4.2 6.3l3.1 1.4s4.4-8.3 9.8-11.4 6.1-5.7 6.1-5.7L50 57.7z"/><path class="lst3" d="M32.7 41.7S30 49.1 24 52.2c0 0 9.4-1.1 8.7-10.5zm63.1 0s2.7 7.4 8.7 10.5c0 0-9.4-1.1-8.7-10.5zM78.7 55.5s-5.9-6.2-13.8-6.4h.2c-8 .2-13.8 6.4-13.8 6.4 6.9-4.8 12.8-4.7 13.8-4.7-.1 0 6.7-.1 13.6 4.7zm-6.9-13s-3-4.2-7-4.3h.2c-3 .1-6.9 4.3-6.9 4.3 3.4-3.3 6.9-3.2 6.9-3.2s3.3-.1 6.8 3.2zM37.2 73.2s-4.7 2.3-8.1.9H29c-3-1.7-4.5-6.8-4.5-6.8s3 9 12.7 5.9zm54.8 0s4.7 2.3 8.1.9c4-1.7 4.6-6.8 4.6-6.8s-3 9-12.7 5.9z"/><path class="lst3" d="M42.6 41.2c2.6-.5 6.9-.6 10.3.5 4.3 1.5.8 7 1.7 7.3.9.3 2.1-3.8 10.1-3.4 8.1.4 9 4 10.1 3.4s-1.1-10 11-7.8c0 0-12.7-3.4-12.1 5.8 0 0-7.3-5.6-17.5-.6.1 0 2.7-8.6-13.6-5.2zm44.3 0c.2 0 .3.1.4.1.1 0-.1-.1-.4-.1zm0 0zM39.1 28.9S28.3 42.5 26.7 47.7c-1.6 5.3-2.8 27-4.2 30.1l-5-21.4 9.2-22.3 12.4-5.2zm50.8 0s10.8 13.6 12.4 18.8c1.6 5.3 2.8 27 4.2 30.1l5-21.4-9.2-22.3-12.4-5.2z"/><path class="lst7" d="M89.4 28.9s11.6 9.7 15 20.9c3.4 11.2 2 24.8 4.6 26.5 3.7 2.4 7.9-11.9 9.3-13.4 2.2-2.4 9.5-8.5 10-9.6.5-1.1-14.8-17.8-21.5-21.1-8.1-3.8-18.1-4.1-17.4-3.3z"/><path class="lst8" d="M99.3 34.9s13.7 17.5 13.5 39.3l5.5-11.2c-.1 0-4.9-14.3-19-28.1z"/><path class="lst7" d="M39.1 28.9s-11.6 9.7-15 20.9-2 24.8-4.6 26.5c-3.7 2.4-7.9-11.9-9.3-13.4C8 60.5.7 54.4.2 53.3-.3 52.2 15 35.5 21.7 32.2c8.1-3.8 18.1-4.1 17.4-3.3z"/><path class="lst8" d="M29.2 34.9S15.5 52.4 15.7 74.2L10.3 63s4.8-14.3 18.9-28.1z"/><path class="lst3" d="M21.8 74.6s1 5.4 2.6 7.1.5-1.3.5-1.3-1.7-.9-1.4-7.8-1.7 2-1.7 2zm85.3 0s-1 5.4-2.6 7.1-.5-1.3-.5-1.3 1.7-.9 1.4-7.8 1.7 2 1.7 2z"/><circle class="lst8" cx="54.5" cy="70.5" r=".8"/><circle class="lst8" cx="49.9" cy="75.3" r=".8"/><circle class="lst8" cx="48.4" cy="70.5" r=".8"/><g><circle class="lst8" cx="74" cy="70.5" r=".8"/><circle class="lst8" cx="78.6" cy="75.3" r=".8"/><circle class="lst8" cx="80.1" cy="70.5" r=".8"/></g></symbol><symbol id="svg--pug1" viewBox="0 0 128 128" xmlns="http://www.w3.org/2000/svg"><style>.mst1{fill:#efcca3}.mst3{fill:#ccac8d}.mst4{fill:#fff}.mst7{fill:#56332b}.mst8{fill:#442823}.mst9{fill:#7f4a41}.mst10{fill:#331712}</style><path class="mst1" d="M107.4 50.9c-.2-4.4.4-8.3-1.6-11.6-4.8-8.2-16.8-13-40.8-13v.7h-.5.5v-.7c-24 0-36.6 4.8-41.4 13.1-1.9 3.4-1.7 7.2-2 11.6-.2 3.5-1.8 7.2-1.1 11.2.8 5.2 1.1 10.4 1.9 15.2.6 3.9 6 7.2 6.5 10.9 1.4 10.2 12 14.9 36 14.9v.8h-.6.7v-.8c24 0 34.2-4.7 35.5-14.9.5-3.8 5.5-7 6.1-10.9.8-4.8 1.1-10 1.9-15.2.7-4-.9-7.8-1.1-11.3z"/><path class="mst3" d="M64.6 54.5c4.3.1 7.3 2.8 10.1 5.3 3.3 2.9 8.9 4.9 11.2 7.4 2.3 2.5 5.3 5 6.4 8.9 1.1 3.9 1.4 8.9 1.4 10.2 0 1.3.7 1 2.7 0 4.7-2.3 9.9-8.5 9.9-8.5-.6 3.9-5.7 7.4-6.2 11.1C98.9 99.1 89 104 64.5 104h-.1.6"/><path class="mst3" d="M80.4 46.7c.9 3.1 4.1 13.6-2.1 10.1 0 0 2.6 1.5 4.2 7.2 1.7 5.7 5.8 6.4 5.8 6.4s6.7 1.3 11.7-3c4.2-3.6 4.9-10 3.1-14.9-1.8-4.8-5-6.3-9.7-7.3-4.7-1.1-14.1-2-13 1.5z"/><circle cx="92.3" cy="58.1" r="8.8"/><circle class="mst4" cx="90" cy="54.2" r="2.3"/><path class="mst1" d="M78.9 57.7s7.9 5.4 12.2 10.7c4.3 5.3 4.2 6.3 4.2 6.3l-3.1 1.4s-4.4-8.3-9.8-11.4c-5.5-3.1-6.1-5.7-6.1-5.7l2.6-1.3z"/><path class="mst3" d="M64.9 54.5c-4.3.1-7.5 2.8-10.4 5.3-3.3 2.9-9.1 4.9-11.4 7.4-2.3 2.5-5.4 5-6.5 8.9-1.1 3.9-1.5 8.9-1.5 10.2 0 1.3.2 1.4-2.7 0-4.7-2.2-9.9-8.5-9.9-8.5.6 3.9 5.7 7.4 6.2 11.1C30.1 99.1 40 104 64.5 104h.5"/><path class="mst7" d="M88.1 71.4C83.3 65.5 75.6 60 64.9 60h-.1c-10.7 0-18.4 5.5-23.2 11.4-5 6.1-4.6 8.5-4.6 14.3 0 21 7.4 15 12.3 17.6 5 2.5 10.2 1.7 15.5 1.7h.1c5.4 0 10.5.7 15.5-1.8 4.9-2.5 12.3 3.7 12.3-17.3.1-5.8.4-8.4-4.6-14.5z"/><path class="mst8" d="M64.4 65.2s-.7 9.7-2.1 11.6l2.6-.6-.5-11z"/><path class="mst8" d="M65.1 65.2s.7 9.7 2.1 11.6l-2.6-.6.5-11z"/><path class="mst7" d="M56.7 62.9c-1-2.3 2.6-6 8.3-6.1 5.7 0 9.3 3.7 8.3 6.1-1 2.4-4.6 3.1-8.3 3.2-3.6-.1-7.3-.8-8.3-3.2z"/><path d="M65 65.2c0-.4 3.4-.5 5.2-1.7 0 0-3.7 1.2-4.5.7-.8-.4-1-1.6-1-1.6s-.3 1.2-.9 1.6c-.7.4-4.9-.7-4.9-.7s5.6 1.4 5.6 1.7c0 .3-.1 1.3-.1 2 0 2.5 0 8.7.4 9.2.6.9.4-6.7.4-9.2-.1-.8-.1-1.6-.2-2z"/><path class="mst9" d="M65.2 78.6c1.7 0 4.7 1.2 7.4 3.1-2.6-2.9-5.7-4.9-7.4-4.9-1.8 0-5.6 2.2-8.3 5.4 2.8-2.2 6.4-3.6 8.3-3.6z"/><path class="mst8" d="M64.5 96.3c-3.8 0-7.5-1.2-10.9-2.1-.7-.2-1.4.3-2.1.1-6.3-2-11.4-5.4-14.5-9.7v1c0 21 7.4 15.1 12.3 17.6 5 2.5 10.2 1.7 15.5 1.7h.1c5.4 0 10.5.7 15.5-1.8 4.9-2.5 12.3 3.6 12.3-17.4 0-.8 0-1.6.1-2.3-2.9 4.7-8.2 8.4-14.8 10.6-.6.2-2-.3-2.6-.2-3.6 1.2-6.8 2.5-10.9 2.5z"/><path class="mst8" d="M55 85s-2.5 7.5-.8 10.8l-2.3-1s1.7-7.6 3.1-9.8zm19.8 0s2.5 7.5.8 10.8l2.3-1s-1.8-7.6-3.1-9.8z"/><path class="mst3" d="M48.6 46.7c-.9 3.1-4.1 13.6 2.1 10.1 0 0-2.6 1.5-4.2 7.2s-5.8 6.4-5.8 6.4-6.7 1.3-11.7-3c-4.2-3.6-4.9-10-3.1-14.9s5-6.3 9.7-7.3c4.7-1.1 14-2 13 1.5z"/><path d="M64.9 76.8c2.7 0 11.1 5.8 11.2 12.9v-.4c0-7.4-6.8-13.3-11.2-13.3-4.4 0-11.2 6-11.2 13.3v.4c.1-7.1 8.5-12.9 11.2-12.9z"/><ellipse transform="rotate(-14.465 66.712 61.468)" class="mst10" cx="66.7" cy="61.5" rx=".8" ry="1.5"/><ellipse transform="rotate(17.235 62.371 61.462)" class="mst10" cx="62.4" cy="61.5" rx=".8" ry="1.5"/><circle cx="37.2" cy="58.1" r="8.8"/><circle class="mst4" cx="39.5" cy="54.2" r="2.3"/><path class="mst9" d="M67.5 58.2c0-.1-2.3 1-2.9 1.1-.6-.1-2.9-1.2-2.9-1.1h5.8z"/><path class="mst1" d="M50 57.7s-7.9 5.4-12.2 10.7c-4.3 5.3-4.2 6.3-4.2 6.3l3.1 1.4s4.4-8.3 9.8-11.4 6.1-5.7 6.1-5.7L50 57.7z"/><path class="mst3" d="M32.7 41.7S30 49.1 24 52.2c0 0 9.4-1.1 8.7-10.5zm63.1 0s2.7 7.4 8.7 10.5c0 0-9.4-1.1-8.7-10.5zM78.7 55.5s-5.9-6.2-13.8-6.4h.2c-8 .2-13.8 6.4-13.8 6.4 6.9-4.8 12.8-4.7 13.8-4.7-.1 0 6.7-.1 13.6 4.7zm-6.9-13s-3-4.2-7-4.3h.2c-3 .1-6.9 4.3-6.9 4.3 3.4-3.3 6.9-3.2 6.9-3.2s3.3-.1 6.8 3.2zM37.2 73.2s-4.7 2.3-8.1.9H29c-3-1.7-4.5-6.8-4.5-6.8s3 9 12.7 5.9zm54.8 0s4.7 2.3 8.1.9c4-1.7 4.6-6.8 4.6-6.8s-3 9-12.7 5.9z"/><path class="mst3" d="M42.6 41.2c2.6-.5 6.9-.6 10.3.5 4.3 1.5.8 7 1.7 7.3.9.3 2.1-3.8 10.1-3.4 8.1.4 9 4 10.1 3.4s-1.1-10 11-7.8c0 0-12.7-3.4-12.1 5.8 0 0-7.3-5.6-17.5-.6.1 0 2.7-8.6-13.6-5.2zm44.3 0c.2 0 .3.1.4.1.1 0-.1-.1-.4-.1zm0 0zM39.1 28.9S28.3 42.5 26.7 47.7c-1.6 5.3-2.8 27-4.2 30.1l-5-21.4 9.2-22.3 12.4-5.2zm50.8 0s10.8 13.6 12.4 18.8c1.6 5.3 2.8 27 4.2 30.1l5-21.4-9.2-22.3-12.4-5.2z"/><path class="mst7" d="M89.4 28.9s11.6 9.7 15 20.9c3.4 11.2 2 24.8 4.6 26.5 3.7 2.4 7.9-11.9 9.3-13.4 2.2-2.4 9.5-8.5 10-9.6.5-1.1-14.8-17.8-21.5-21.1-8.1-3.8-18.1-4.1-17.4-3.3z"/><path class="mst8" d="M99.3 34.9s13.7 17.5 13.5 39.3l5.5-11.2c-.1 0-4.9-14.3-19-28.1z"/><path class="mst7" d="M39.1 28.9s-11.6 9.7-15 20.9-2 24.8-4.6 26.5c-3.7 2.4-7.9-11.9-9.3-13.4C8 60.5.7 54.4.2 53.3-.3 52.2 15 35.5 21.7 32.2c8.1-3.8 18.1-4.1 17.4-3.3z"/><path class="mst8" d="M29.2 34.9S15.5 52.4 15.7 74.2L10.3 63s4.8-14.3 18.9-28.1z"/><path class="mst3" d="M21.8 74.6s1 5.4 2.6 7.1.5-1.3.5-1.3-1.7-.9-1.4-7.8-1.7 2-1.7 2zm85.3 0s-1 5.4-2.6 7.1-.5-1.3-.5-1.3 1.7-.9 1.4-7.8 1.7 2 1.7 2z"/><circle class="mst8" cx="54.5" cy="70.5" r=".8"/><circle class="mst8" cx="49.9" cy="75.3" r=".8"/><circle class="mst8" cx="48.4" cy="70.5" r=".8"/><g><circle class="mst8" cx="74" cy="70.5" r=".8"/><circle class="mst8" cx="78.6" cy="75.3" r=".8"/><circle class="mst8" cx="80.1" cy="70.5" r=".8"/></g></symbol><symbol viewBox="0 0 48 48" id="svg--react" xmlns="http://www.w3.org/2000/svg"><path fill="#80deea" d="M24 34C11.1 34 1 29.6 1 24s10.1-10 23-10 23 4.4 23 10-10.1 10-23 10zm0-18c-12.6 0-21 4.1-21 8 0 3.9 8.4 8 21 8s21-4.1 21-8c0-3.9-8.4-8-21-8z"/><path fill="#80deea" d="M15.1 44.6c-1 0-1.8-.2-2.6-.7-4.9-2.8-3.6-13.7 2.8-24.9 3-5.2 6.7-9.6 10.3-12.4 3.9-3 7.4-3.9 9.8-2.5 2.5 1.4 3.4 4.9 2.8 9.8-.6 4.6-2.6 10-5.6 15.2-3 5.2-6.7 9.6-10.3 12.4-2.6 2-5.1 3.1-7.2 3.1zM32.9 5.4c-1.6 0-3.7.9-6 2.7C23.5 10.8 20 15 17.1 20c-6.3 10.9-6.9 20.3-3.6 22.2 1.7 1 4.5.1 7.6-2.3C24.5 37.2 28 33 30.9 28c2.9-5 4.8-10.1 5.4-14.4.5-4-.1-6.8-1.8-7.8-.5-.2-1-.4-1.6-.4z"/><path fill="#80deea" d="M33 44.6c-5 0-12.2-6.1-17.6-15.6C8.9 17.8 7.6 6.9 12.5 4.1 17.4 1.3 26.2 7.8 32.7 19c3 5.2 5 10.6 5.6 15.2.7 4.9-.3 8.3-2.8 9.8-.8.4-1.6.6-2.5.6zM13.5 5.8c-3.3 1.9-2.7 11.3 3.6 22.2 6.3 10.9 14.1 16.1 17.4 14.2 1.7-1 2.3-3.8 1.8-7.8-.6-4.3-2.5-9.4-5.4-14.4C24.6 9.1 16.8 3.9 13.5 5.8z"/><circle cx="24" cy="24" r="4" fill="#80deea"/></symbol><symbol viewBox="0 0 48 48" id="svg--sass" xmlns="http://www.w3.org/2000/svg"><path fill="#f06292" d="M39.867 25.956a9.032 9.032 0 00-3.986.928c-.408-.815-.822-1.532-.891-2.065-.081-.622-.175-.994-.077-1.735.098-.741.527-1.791.521-1.87-.006-.079-.096-.456-.983-.463-.887-.006-1.646.171-1.735.405-.089.234-.26.761-.366 1.311-.155.804-1.771 3.673-2.688 5.173-.3-.586-.555-1.102-.608-1.51-.081-.622-.175-.994-.077-1.735.098-.741.527-1.791.521-1.87-.006-.079-.096-.456-.983-.463-.887-.006-1.646.171-1.735.405-.089.234-.185.781-.366 1.311-.182.529-2.329 5.314-2.892 6.555-.287.632-.536 1.14-.712 1.486l-.001-.002-.029.062c-.151.295-.24.458-.24.458l.003.006c-.12.217-.248.418-.311.418-.044 0-.133-.577.019-1.369.32-1.66 1.087-4.248 1.08-4.338-.004-.046.143-.497-.501-.733-.626-.229-.849.153-.906.154-.055.001-.096.135-.096.135s.697-2.911-1.33-2.911c-1.268 0-3.024 1.387-3.889 2.644-.546.298-1.715.936-2.954 1.617l-1.423.783-.095-.104c-2.459-2.623-7.003-4.478-6.811-8.005.07-1.282.516-4.658 8.733-8.752 6.731-3.354 12.12-2.431 13.051-.386 1.33 2.923-2.88 8.354-9.87 9.138-2.663.299-4.066-.734-4.415-1.118-.367-.405-.422-.423-.559-.347-.223.124-.082.481 0 .694.209.543 1.065 1.506 2.525 1.986 1.285.422 4.412.653 8.193-.81 4.236-1.638 7.543-6.196 6.571-10.005-.988-3.874-7.412-5.148-13.492-2.988-3.623 1.286-7.54 3.304-10.357 5.938-3.349 3.132-3.883 5.859-3.663 6.998.782 4.048 6.361 6.684 8.595 8.637l-.308.17c-1.12.554-5.373 2.78-6.437 5.131-1.207 2.667.192 4.581 1.118 4.839 2.869.798 5.813-.638 7.396-2.998 1.582-2.359 1.389-5.432.663-6.834l-.028-.052.876-.517c.57-.335 1.13-.647 1.615-.911-.272.744-.471 1.637-.574 2.926-.122 1.514.499 3.471 1.311 4.241.358.339.788.347 1.06.347.945 0 1.376-.786 1.851-1.716.582-1.14 1.099-2.468 1.099-2.468s-.648 3.586 1.118 3.586c.644 0 1.291-.835 1.58-1.26l.001.007.05-.083c.067-.102.105-.167.105-.167l.003-.019a70.91 70.91 0 001.693-3.162c1.112-2.182 2.178-4.916 2.178-4.916s.099.668.424 1.774c.191.65.597 1.369.918 2.059-.258.358-.416.563-.416.563l.004.011c-.206.274-.437.569-.679.857-.878 1.045-1.923 2.239-2.063 2.583-.165.406-.126.704.193.945.233.175.647.203 1.08.174a4.92 4.92 0 001.617-.368 5.426 5.426 0 001.39-.731c.861-.633 1.38-1.538 1.33-2.738-.028-.661-.238-1.316-.505-1.934l.235-.34c1.357-1.984 2.41-4.164 2.41-4.164s.099.668.424 1.774c.164.559.489 1.17.781 1.768-1.276 1.037-2.067 2.242-2.342 3.032-.508 1.462-.11 2.124.636 2.275.338.068.816-.087 1.175-.239a5.438 5.438 0 001.486-.764c.861-.633 1.689-1.519 1.639-2.718-.023-.546-.171-1.088-.372-1.608 1.082-.451 2.482-.701 4.266-.493 3.827.447 4.577 2.836 4.434 3.836-.144 1-.946 1.55-1.215 1.716-.268.166-.35.224-.328.347.033.179.157.173.386.134.315-.053 2.009-.813 2.082-2.659.091-2.346-2.154-4.92-6.131-4.899zM10.37 35.9c-1.268 1.383-3.038 1.905-3.798 1.465-.82-.475-.495-2.511 1.06-3.979.948-.894 2.172-1.718 2.984-2.225l.786-.472.086-.048-.001-.002.196-.118c.567 2.089.018 3.928-1.313 5.379zm9.235-6.277c-.441 1.076-1.365 3.83-1.928 3.682-.483-.127-.777-2.22-.096-4.28.342-1.037 1.074-2.276 1.504-2.757.692-.774 1.454-1.027 1.639-.713.235.4-.842 3.393-1.119 4.068zm7.629 3.64c-.187.098-.359.159-.438.112-.059-.035.077-.164.077-.164s.954-1.027 1.33-1.494c.219-.272.472-.595.748-.955l.003.107c-.002 1.23-1.19 2.06-1.72 2.394zm5.877-1.34c-.14-.099-.116-.42.343-1.421.18-.393.592-1.054 1.306-1.686.083.26.133.509.132.741-.009 1.548-1.113 2.126-1.781 2.366z"/></symbol><symbol viewBox="0 0 24 24" id="svg--telegram" xmlns="http://www.w3.org/2000/svg"><path d="M23.612.225a1.045 1.045 0 00-1.138-.1L.827 11.646a1.547 1.547 0 00.125 2.8l3.254 1.38c0 .084.015.167.043.245l2.5 6.746c.266.715.951 1.188 1.714 1.183.45-.004.884-.173 1.219-.474a1188 1188 0 003.4-3.754.249.249 0 01.283-.062l3.157 1.339c.417.177.89.167 1.3-.027.407-.192.711-.55.835-.983L23.961 1.3a1.014 1.014 0 00-.349-1.075zM5.838 16.046l9.692-8.063a.226.226 0 01.337.017.219.219 0 01.019.332l-7.238 8.855a.728.728 0 00-.157.351l-.633 3.95z" fill="#1D1D1B"/></symbol><symbol viewBox="0 0 256 221" preserveAspectRatio="xMinYMin meet" id="svg--vue" xmlns="http://www.w3.org/2000/svg"><path d="M204.8 0H256L128 220.8 0 0h97.92L128 51.2 157.44 0h47.36z" fill="#41B883"/><path d="M0 0l128 220.8L256 0h-51.2L128 132.48 50.56 0H0z" fill="#41B883"/><path d="M50.56 0L128 133.12 204.8 0h-47.36L128 51.2 97.92 0H50.56z" fill="#35495E"/></symbol><symbol viewBox="0 0 128 128" id="svg--webpack" xmlns="http://www.w3.org/2000/svg"><path fill="#8ed6fb" d="M117.29 98.1L66.24 127v-22.51L98 87l19.29 11.1zm3.5-3.16V34.55l-18.68 10.8v38.81l18.67 10.77zM10.71 98.1l51 28.88v-22.49L29.94 87zm-3.5-3.16V34.55l18.68 10.8v38.81zm2.19-64.3L61.76 1v21.76L28.21 41.21l-.27.15zm109.18 0L66.24 1v21.76L99.79 41.2l.27.15 18.54-10.71z"/><path fill="#1c78c0" d="M61.76 99.37L30.37 82.1V47.92L61.76 66zm4.48 0l31.39-17.25v-34.2L66.24 66zM32.5 44L64 26.66 95.5 44 64 62.16 32.5 44z"/></symbol><symbol viewBox="0 0 48 48" id="svg--whatsapp" xmlns="http://www.w3.org/2000/svg"><path fill="#fff" d="M4.868 43.303l2.694-9.835a18.941 18.941 0 01-2.535-9.489C5.032 13.514 13.548 5 24.014 5a18.867 18.867 0 0113.43 5.566A18.866 18.866 0 0143 23.994c-.004 10.465-8.522 18.98-18.986 18.98-.001 0 0 0 0 0h-.008a18.965 18.965 0 01-9.073-2.311l-10.065 2.64z"/><path fill="#fff" d="M4.868 43.803a.499.499 0 01-.482-.631l2.639-9.636a19.48 19.48 0 01-2.497-9.556C4.532 13.238 13.273 4.5 24.014 4.5a19.367 19.367 0 0113.784 5.713A19.362 19.362 0 0143.5 23.994c-.004 10.741-8.746 19.48-19.486 19.48a19.535 19.535 0 01-9.144-2.277l-9.875 2.589a.457.457 0 01-.127.017z"/><path fill="#cfd8dc" d="M24.014 5a18.867 18.867 0 0113.43 5.566A18.866 18.866 0 0143 23.994c-.004 10.465-8.522 18.98-18.986 18.98h-.008a18.965 18.965 0 01-9.073-2.311l-10.065 2.64 2.694-9.835a18.941 18.941 0 01-2.535-9.489C5.032 13.514 13.548 5 24.014 5m0-1C12.998 4 4.032 12.962 4.027 23.979a20.01 20.01 0 002.461 9.622L3.903 43.04a.998.998 0 001.219 1.231l9.687-2.54a20.026 20.026 0 009.197 2.244c11.024 0 19.99-8.963 19.995-19.98A19.856 19.856 0 0038.153 9.86 19.869 19.869 0 0024.014 4z"/><path fill="#40c351" d="M35.176 12.832a15.673 15.673 0 00-11.157-4.626c-8.704 0-15.783 7.076-15.787 15.774a15.738 15.738 0 002.413 8.396l.376.597-1.595 5.821 5.973-1.566.577.342a15.75 15.75 0 008.032 2.199h.006c8.698 0 15.777-7.077 15.78-15.776a15.68 15.68 0 00-4.618-11.161z"/><path fill="#fff" fill-rule="evenodd" d="M19.268 16.045c-.355-.79-.729-.806-1.068-.82-.277-.012-.593-.011-.909-.011-.316 0-.83.119-1.265.594-.435.475-1.661 1.622-1.661 3.956 0 2.334 1.7 4.59 1.937 4.906.237.316 3.282 5.259 8.104 7.161 4.007 1.58 4.823 1.266 5.693 1.187.87-.079 2.807-1.147 3.202-2.255.395-1.108.395-2.057.277-2.255-.119-.198-.435-.316-.909-.554s-2.807-1.385-3.242-1.543c-.435-.158-.751-.237-1.068.238-.316.474-1.225 1.543-1.502 1.859-.277.317-.554.357-1.028.119s-2.002-.738-3.815-2.354c-1.41-1.257-2.362-2.81-2.639-3.285-.277-.474-.03-.731.208-.968.213-.213.474-.554.712-.831.237-.277.316-.475.474-.791.158-.317.079-.594-.04-.831-.117-.238-1.039-2.584-1.461-3.522z" clip-rule="evenodd"/></symbol></svg>