<?xml version="1.0" encoding="UTF-8"?><svg viewBox="0 0 24 24" xmlns="http://www.w3.org/2000/svg" width="24" height="24"><path d="M23.612.225a1.045 1.045 0 00-1.138-.1L.827 11.646a1.547 1.547 0 00.125 2.8l3.254 1.38c0 .084.015.167.043.245l2.5 6.746c.266.715.951 1.188 1.714 1.183.45-.004.884-.173 1.219-.474a1188 1188 0 003.4-3.754.249.249 0 01.283-.062l3.157 1.339c.417.177.89.167 1.3-.027.407-.192.711-.55.835-.983L23.961 1.3a1.014 1.014 0 00-.349-1.075zM5.838 16.046l9.692-8.063a.226.226 0 01.337.017.219.219 0 01.019.332l-7.238 8.855a.728.728 0 00-.157.351l-.633 3.95z" fill="#1D1D1B"/></svg>